# xmcd
#
# Track frame offsets:
# 150
# 16347
# 28157
# 35295
# 48942
# 56262
# 68172
# 76592
# 89537
# 96355
# 108730
# 118125
# 128422
# 143907
#
# Disc length: 2071 seconds
#
#
# Revision: 0
# Processed by: cddbd v1.5.2PL0 Copyright (c) Steve Scherf et al.
# Submitted via: FreeRIP 2.951 
#
DISCID=b308150e
DTITLE=FOLCLORE PORTUGUÊS.Beira Alta
DYEAR=1996
DGENRE=Folklore
TTITLE0=AS FOLHAS DO CASTANHEIRO
TTITLE1=ZÉ, VAI LAVAR OS PÉS
TTITLE2=CACHOPAS, OLARÉ
TTITLE3=PATROCINIA
TTITLE4=MAÇADEIRAS
TTITLE5=Ó MEU AMOR
TTITLE6=OLHA A BARCA
TTITLE7=LARAI-LAI
TTITLE8=ADELAIDINHA
TTITLE9=TAREIO
TTITLE10=O LADRÃO DO NEGRO MELRO
TTITLE11=CARANDEIRAS DA RUA
TTITLE12=HEI-DE PEDIR À VIRGEM
TTITLE13=ENLEIO
EXTD=
EXTT0=
EXTT1=
EXTT2=
EXTT3=
EXTT4=
EXTT5=
EXTT6=
EXTT7=
EXTT8=
EXTT9=
EXTT10=
EXTT11=
EXTT12=
EXTT13=
PLAYORDER=
